<?xml version="1.0" encoding="utf-8"?>
<!-- Svg Vector Icons : http://www.onlinewebfonts.com/icon -->
<!DOCTYPE svg PUBLIC "-//W3C//DTD SVG 1.1//EN" "http://www.w3.org/Graphics/SVG/1.1/DTD/svg11.dtd">
<svg version="1.1" xmlns="http://www.w3.org/2000/svg" xmlns:xlink="http://www.w3.org/1999/xlink" x="0px" y="0px" viewBox="0 0 1000 1000" enable-background="new 0 0 1000 1000" xml:space="preserve">
<metadata> Svg Vector Icons : http://www.onlinewebfonts.com/icon </metadata>
<g><path d="M350.3,341.7h460.2c18.1,0,32.9-15.7,32.9-35c0-19.3-14.7-35-32.9-35H350.3c-18.1,0-32.9,15.7-32.9,35C317.5,326,332.2,341.7,350.3,341.7L350.3,341.7z M411.1,115h175c29,0,52.5-23.5,52.5-52.5S615,10,586.1,10h-175c-29,0-52.5,23.5-52.5,52.5S382.1,115,411.1,115L411.1,115z M850,45h-35c-19.3,0-35,15.7-35,35s15.7,35,35,35h35c38.6,0,70,31.4,70,70v665c0,38.6-31.4,70-70,70H150c-38.6,0-70-31.4-70-70V185c0-38.6,31.4-70,70-70h35c19.3,0,35-15.7,35-35s-15.7-35-35-35h-35C72.7,45,10,107.7,10,185v665c0,77.3,62.7,140,140,140h700c77.3,0,140-62.7,140-140V185C990,107.7,927.3,45,850,45L850,45z"/><path d="M142.5,309.2c0,28.2,22.9,51.2,51.1,51.2c28.2,0,51.2-22.9,51.2-51.1c0,0,0,0,0,0c0-28.2-22.9-51.2-51.1-51.2S142.5,280.9,142.5,309.2C142.5,309.1,142.5,309.1,142.5,309.2z"/><path d="M350.3,551.7h460.2c18.1,0,32.9-15.7,32.9-35s-14.7-35-32.9-35H350.3c-18.1,0-32.9,15.7-32.9,35S332.2,551.7,350.3,551.7L350.3,551.7z"/><path d="M142.5,519.2c0,28.2,22.9,51.1,51.1,51.2c28.2,0,51.2-22.9,51.2-51.1c0,0,0,0,0,0c0-28.2-22.9-51.2-51.1-51.2C165.4,468,142.5,490.9,142.5,519.2C142.5,519.1,142.5,519.1,142.5,519.2z"/><path d="M350.3,760.6h460.2c18.1,0,32.9-15.7,32.9-35c0-19.3-14.7-35-32.9-35H350.3c-18.1,0-32.9,15.7-32.9,35C317.5,744.9,332.2,760.6,350.3,760.6L350.3,760.6z"/><path d="M142.5,728.1c0,28.2,22.9,51.2,51.1,51.2c28.2,0,51.2-22.9,51.2-51.1c0,0,0,0,0,0c0-28.2-22.9-51.2-51.1-51.2C165.4,676.9,142.5,699.8,142.5,728.1C142.5,728,142.5,728,142.5,728.1z"/></g>
</svg>